SplineFontDB: 3.0
FontName: tiny
FullName: TinyPixel
FamilyName: TinyPixel
Weight: Regular
Copyright: Copyright (c) 2016, Zher Huei Lee
UComments: "2016-11-9: Created with FontForge (http://fontforge.org)"
Version: 001.000
ItalicAngle: 0
UnderlinePosition: -100
UnderlineWidth: 100
Ascent: 500
Descent: 100
InvalidEm: 0
LayerCount: 2
Layer: 0 0 "Back" 1
Layer: 1 0 "Fore" 0
XUID: [1021 1001 -1599487986 7508675]
StyleMap: 0x0000
FSType: 0
OS2Version: 0
OS2_WeightWidthSlopeOnly: 0
OS2_UseTypoMetrics: 1
CreationTime: 1478711833
ModificationTime: 1483767599
OS2TypoAscent: 0
OS2TypoAOffset: 1
OS2TypoDescent: 0
OS2TypoDOffset: 1
OS2TypoLinegap: 54
OS2WinAscent: 0
OS2WinAOffset: 1
OS2WinDescent: 0
OS2WinDOffset: 1
HheadAscent: 0
HheadAOffset: 1
HheadDescent: 0
HheadDOffset: 1
OS2Vendor: 'PfEd'
Lookup: 258 0 0 "Horizontal Kerning" { "Horizontal Kerning-1" [90,9,0] } ['kern' ('DFLT' <'dflt' > 'latn' <'dflt' > ) ]
MarkAttachClasses: 1
DEI: 91125
KernClass2: 2+ 3 "Horizontal Kerning-1"
 5 slash
 9 backslash
 5 slash
 9 backslash
 0 {} -300 {} 0 {} 0 {} 0 {} -300 {}

StartChar: A
Encoding: 65 65 0
Width: 400
VWidth: 0
Flags: HW
LayerCount: 2
Fore
SplineSet
100 300 m 25
 200 300 l 25
 200 400 l 25
 100 400 l 25
 100 300 l 25
0 0 m 25
 0 500 l 25
 300 500 l 25
 300 0 l 25
 200 0 l 25
 200 200 l 25
 100 200 l 25
 100 0 l 25
 0 0 l 25
EndSplineSet
Validated: 1
EndChar

StartChar: B
Encoding: 66 66 1
Width: 400
VWidth: 0
Flags: HW
LayerCount: 2
Fore
SplineSet
100 100 m 29
 200 100 l 25
 200 200 l 25
 100 200 l 25
 100 100 l 29
100 300 m 25
 200 300 l 25
 200 400 l 25
 100 400 l 25
 100 300 l 25
0 0 m 25
 0 500 l 25
 300 500 l 25
 300 300 l 25
 200 300 l 25
 200 200 l 25
 300 200 l 25
 300 0 l 25
 0 0 l 25
EndSplineSet
Validated: 5
EndChar

StartChar: C
Encoding: 67 67 2
Width: 400
VWidth: 0
Flags: HW
LayerCount: 2
Fore
SplineSet
0 0 m 29
 0 500 l 25
 300 500 l 25
 300 400 l 25
 100 400 l 25
 100 100 l 25
 300 100 l 25
 300 0 l 25
 0 0 l 29
EndSplineSet
EndChar

StartChar: D
Encoding: 68 68 3
Width: 400
VWidth: 0
Flags: HW
LayerCount: 2
Fore
SplineSet
100 100 m 29
 200 100 l 25
 200 400 l 25
 100 400 l 25
 100 100 l 29
0 0 m 25
 0 500 l 25
 200 500 l 25
 200 400 l 25
 300 400 l 25
 300 100 l 25
 200 100 l 25
 200 0 l 25
 0 0 l 25
EndSplineSet
Validated: 5
EndChar

StartChar: E
Encoding: 69 69 4
Width: 400
VWidth: 0
Flags: HW
LayerCount: 2
Fore
SplineSet
0 0 m 29
 0 500 l 25
 300 500 l 25
 300 400 l 25
 100 400 l 25
 100 300 l 25
 200 300 l 25
 200 200 l 25
 100 200 l 25
 100 100 l 25
 300 100 l 25
 300 0 l 25
 0 0 l 29
EndSplineSet
Validated: 1
EndChar

StartChar: F
Encoding: 70 70 5
Width: 400
VWidth: 0
Flags: HW
LayerCount: 2
Fore
SplineSet
0 0 m 29
 0 500 l 25
 300 500 l 25
 300 400 l 25
 100 400 l 25
 100 300 l 25
 200 300 l 25
 200 200 l 25
 100 200 l 25
 100 0 l 25
 0 0 l 29
EndSplineSet
Validated: 1
EndChar

StartChar: G
Encoding: 71 71 6
Width: 400
VWidth: 0
Flags: HW
LayerCount: 2
Fore
SplineSet
0 0 m 29
 0 500 l 25
 300 500 l 25
 300 400 l 25
 100 400 l 25
 100 100 l 25
 200 100 l 25
 200 300 l 25
 300 300 l 25
 300 0 l 25
 0 0 l 29
EndSplineSet
Validated: 1
EndChar

StartChar: H
Encoding: 72 72 7
Width: 400
VWidth: 0
Flags: HW
LayerCount: 2
Fore
SplineSet
0 0 m 29
 0 500 l 25
 100 500 l 25
 100 300 l 25
 200 300 l 25
 200 500 l 25
 300 500 l 25
 300 0 l 25
 200 0 l 25
 200 200 l 25
 100 200 l 25
 100 0 l 25
 0 0 l 29
EndSplineSet
Validated: 1
EndChar

StartChar: I
Encoding: 73 73 8
Width: 400
VWidth: 0
Flags: W
LayerCount: 2
Fore
SplineSet
0 0 m 29
 0 100 l 25
 100 100 l 25
 100 400 l 25
 0 400 l 25
 0 500 l 25
 300 500 l 25
 300 400 l 25
 200 400 l 25
 200 100 l 25
 300 100 l 25
 300 0 l 25
 0 0 l 29
EndSplineSet
Validated: 1
EndChar

StartChar: J
Encoding: 74 74 9
Width: 400
VWidth: 0
Flags: HW
LayerCount: 2
Fore
SplineSet
0 400 m 25
 0 500 l 25
 300 500 l 25
 300 0 l 1
 100 0 l 25
 100 100 l 25
 0 100 l 25
 0 200 l 25
 100 200 l 25
 100 100 l 25
 200 100 l 1
 200 400 l 25
 0 400 l 25
EndSplineSet
Validated: 5
EndChar

StartChar: K
Encoding: 75 75 10
Width: 400
VWidth: 0
Flags: HW
LayerCount: 2
Fore
SplineSet
0 0 m 29
 0 500 l 25
 100 500 l 25
 100 300 l 25
 200 300 l 25
 200 500 l 25
 300 500 l 25
 300 300 l 25
 200 300 l 25
 200 200 l 25
 300 200 l 25
 300 0 l 25
 200 0 l 25
 200 200 l 25
 100 200 l 25
 100 0 l 25
 0 0 l 29
EndSplineSet
Validated: 5
EndChar

StartChar: L
Encoding: 76 76 11
Width: 400
VWidth: 0
Flags: HW
LayerCount: 2
Fore
SplineSet
0 0 m 29
 0 500 l 25
 100 500 l 25
 100 100 l 25
 300 100 l 25
 300 0 l 25
 0 0 l 29
EndSplineSet
Validated: 1
EndChar

StartChar: M
Encoding: 77 77 12
Width: 600
VWidth: 0
Flags: HW
LayerCount: 2
Fore
SplineSet
0 0 m 29
 0 500 l 25
 100 500 l 25
 100 400 l 25
 200 400 l 25
 200 300 l 25
 300 300 l 25
 300 400 l 25
 400 400 l 25
 400 500 l 25
 500 500 l 25
 500 0 l 25
 400 0 l 25
 400 300 l 25
 300 300 l 25
 300 200 l 25
 200 200 l 25
 200 300 l 25
 100 300 l 25
 100 0 l 25
 0 0 l 29
EndSplineSet
Validated: 5
EndChar

StartChar: N
Encoding: 78 78 13
Width: 400
VWidth: 0
Flags: HW
LayerCount: 2
Fore
SplineSet
0 0 m 29
 0 500 l 25
 200 500 l 25
 200 400 l 25
 300 400 l 25
 300 0 l 25
 200 0 l 25
 200 400 l 25
 100 400 l 25
 100 0 l 25
 0 0 l 29
EndSplineSet
Validated: 5
EndChar

StartChar: O
Encoding: 79 79 14
Width: 400
VWidth: 0
Flags: W
LayerCount: 2
Fore
SplineSet
100 100 m 29
 200 100 l 25
 200 400 l 25
 100 400 l 25
 100 100 l 29
0 0 m 25
 0 500 l 25
 300 500 l 25
 300 0 l 25
 0 0 l 25
EndSplineSet
Validated: 1
EndChar

StartChar: P
Encoding: 80 80 15
Width: 400
VWidth: 0
Flags: HW
LayerCount: 2
Fore
SplineSet
100 300 m 29
 200 300 l 25
 200 400 l 25
 100 400 l 25
 100 300 l 29
0 0 m 25
 0 500 l 25
 300 500 l 25
 300 200 l 25
 100 200 l 25
 100 0 l 25
 0 0 l 25
EndSplineSet
Validated: 1
EndChar

StartChar: Q
Encoding: 81 81 16
Width: 500
VWidth: 0
Flags: HW
LayerCount: 2
Fore
SplineSet
100 100 m 29
 200 100 l 25
 200 200 l 25
 300 200 l 25
 300 400 l 25
 100 400 l 25
 100 100 l 29
0 0 m 25
 0 500 l 25
 400 500 l 25
 400 0 l 25
 0 0 l 25
EndSplineSet
Validated: 1
EndChar

StartChar: R
Encoding: 82 82 17
Width: 400
VWidth: 0
Flags: HW
LayerCount: 2
Fore
SplineSet
100 300 m 29
 200 300 l 25
 200 400 l 25
 100 400 l 25
 100 300 l 29
0 0 m 25
 0 500 l 25
 300 500 l 25
 300 300 l 25
 200 300 l 25
 200 200 l 25
 300 200 l 25
 300 0 l 25
 200 0 l 25
 200 200 l 25
 100 200 l 25
 100 0 l 25
 0 0 l 25
EndSplineSet
Validated: 5
EndChar

StartChar: S
Encoding: 83 83 18
Width: 400
VWidth: 0
Flags: HW
LayerCount: 2
Fore
SplineSet
0 0 m 29
 0 100 l 25
 200 100 l 25
 200 200 l 25
 0 200 l 25
 0 500 l 25
 300 500 l 25
 300 400 l 25
 100 400 l 25
 100 300 l 25
 300 300 l 25
 300 0 l 25
 0 0 l 29
EndSplineSet
Validated: 1
EndChar

StartChar: T
Encoding: 84 84 19
Width: 400
VWidth: 0
Flags: HW
LayerCount: 2
Fore
SplineSet
100 0 m 29
 100 400 l 25
 0 400 l 25
 0 500 l 25
 300 500 l 25
 300 400 l 25
 200 400 l 25
 200 0 l 25
 100 0 l 29
EndSplineSet
Validated: 1
EndChar

StartChar: U
Encoding: 85 85 20
Width: 400
VWidth: 0
Flags: HW
LayerCount: 2
Fore
SplineSet
0 0 m 29
 0 500 l 25
 100 500 l 25
 100 100 l 25
 200 100 l 25
 200 500 l 25
 300 500 l 25
 300 0 l 25
 0 0 l 29
EndSplineSet
Validated: 1
EndChar

StartChar: V
Encoding: 86 86 21
Width: 400
VWidth: 0
Flags: HW
LayerCount: 2
Fore
SplineSet
0 100 m 29
 0 500 l 25
 100 500 l 25
 100 100 l 25
 200 100 l 25
 200 500 l 25
 300 500 l 25
 300 100 l 25
 200 100 l 25
 200 0 l 25
 100 0 l 25
 100 100 l 25
 0 100 l 29
EndSplineSet
Validated: 5
EndChar

StartChar: W
Encoding: 87 87 22
Width: 600
VWidth: 0
Flags: HW
LayerCount: 2
Fore
SplineSet
0 100 m 29
 0 500 l 25
 100 500 l 25
 100 100 l 25
 200 100 l 25
 200 200 l 25
 300 200 l 25
 300 100 l 25
 400 100 l 25
 400 500 l 25
 500 500 l 25
 500 100 l 25
 400 100 l 25
 400 0 l 25
 300 0 l 25
 300 100 l 25
 200 100 l 25
 200 0 l 25
 100 0 l 25
 100 100 l 25
 0 100 l 29
EndSplineSet
Validated: 5
EndChar

StartChar: X
Encoding: 88 88 23
Width: 400
VWidth: 0
Flags: HW
LayerCount: 2
Fore
SplineSet
0 0 m 29
 0 200 l 25
 100 200 l 25
 100 300 l 25
 0 300 l 25
 0 500 l 25
 100 500 l 25
 100 300 l 25
 200 300 l 25
 200 500 l 25
 300 500 l 25
 300 300 l 25
 200 300 l 25
 200 200 l 25
 300 200 l 25
 300 0 l 25
 200 0 l 25
 200 200 l 25
 100 200 l 25
 100 0 l 25
 0 0 l 29
EndSplineSet
Validated: 5
EndChar

StartChar: Y
Encoding: 89 89 24
Width: 400
VWidth: 0
Flags: HW
LayerCount: 2
Fore
SplineSet
0 300 m 29
 0 500 l 25
 100 500 l 25
 100 300 l 25
 200 300 l 25
 200 500 l 25
 300 500 l 25
 300 300 l 25
 200 300 l 25
 200 0 l 25
 100 0 l 25
 100 300 l 25
 0 300 l 29
EndSplineSet
Validated: 5
EndChar

StartChar: Z
Encoding: 90 90 25
Width: 400
VWidth: 0
Flags: HW
LayerCount: 2
Fore
SplineSet
0 0 m 29
 0 200 l 25
 100 200 l 25
 100 300 l 25
 200 300 l 25
 200 400 l 25
 0 400 l 25
 0 500 l 25
 300 500 l 25
 300 300 l 25
 200 300 l 25
 200 200 l 25
 100 200 l 25
 100 100 l 25
 300 100 l 25
 300 0 l 25
 0 0 l 29
EndSplineSet
Validated: 5
EndChar

StartChar: bracketleft
Encoding: 91 91 26
Width: 300
VWidth: 0
Flags: HW
LayerCount: 2
Fore
SplineSet
0 0 m 29
 0 500 l 25
 200 500 l 25
 200 400 l 25
 100 400 l 25
 100 100 l 25
 200 100 l 25
 200 0 l 25
 0 0 l 29
EndSplineSet
Validated: 1
EndChar

StartChar: bracketright
Encoding: 93 93 27
Width: 300
VWidth: 0
Flags: HW
LayerCount: 2
Fore
SplineSet
0 0 m 29
 0 100 l 25
 100 100 l 25
 100 400 l 25
 0 400 l 25
 0 500 l 25
 200 500 l 25
 200 0 l 25
 0 0 l 29
EndSplineSet
Validated: 1
EndChar

StartChar: underscore
Encoding: 95 95 28
Width: 400
VWidth: 0
Flags: HW
LayerCount: 2
Fore
SplineSet
0 0 m 29
 0 100 l 25
 300 100 l 25
 300 0 l 25
 0 0 l 29
EndSplineSet
Validated: 1
EndChar

StartChar: grave
Encoding: 96 96 29
Width: 200
VWidth: 0
Flags: HW
LayerCount: 2
Fore
SplineSet
0 300 m 29
 0 500 l 25
 100 500 l 25
 100 300 l 25
 0 300 l 29
EndSplineSet
Validated: 1
EndChar

StartChar: asciicircum
Encoding: 94 94 30
Width: 400
VWidth: 0
Flags: HW
LayerCount: 2
Fore
SplineSet
0 300 m 29
 0 400 l 25
 100 400 l 25
 100 500 l 25
 200 500 l 25
 200 400 l 25
 300 400 l 25
 300 300 l 25
 200 300 l 25
 200 400 l 25
 100 400 l 25
 100 300 l 25
 0 300 l 29
EndSplineSet
Validated: 5
EndChar

StartChar: a
Encoding: 97 97 31
Width: 400
VWidth: 0
Flags: HW
LayerCount: 2
Fore
SplineSet
100 300 m 25
 200 300 l 25
 200 400 l 25
 100 400 l 25
 100 300 l 25
0 0 m 25
 0 500 l 25
 300 500 l 25
 300 0 l 25
 200 0 l 25
 200 200 l 25
 100 200 l 25
 100 0 l 25
 0 0 l 25
EndSplineSet
Validated: 1
EndChar

StartChar: b
Encoding: 98 98 32
Width: 400
VWidth: 0
Flags: HW
LayerCount: 2
Fore
SplineSet
100 100 m 29
 200 100 l 25
 200 200 l 25
 100 200 l 25
 100 100 l 29
100 300 m 25
 200 300 l 25
 200 400 l 25
 100 400 l 25
 100 300 l 25
0 0 m 25
 0 500 l 25
 300 500 l 25
 300 300 l 25
 200 300 l 25
 200 200 l 25
 300 200 l 25
 300 0 l 25
 0 0 l 25
EndSplineSet
Validated: 5
EndChar

StartChar: c
Encoding: 99 99 33
Width: 400
VWidth: 0
Flags: HW
LayerCount: 2
Fore
SplineSet
0 0 m 29
 0 500 l 25
 300 500 l 25
 300 400 l 25
 100 400 l 25
 100 100 l 25
 300 100 l 25
 300 0 l 25
 0 0 l 29
EndSplineSet
EndChar

StartChar: d
Encoding: 100 100 34
Width: 400
VWidth: 0
Flags: HW
LayerCount: 2
Fore
SplineSet
100 100 m 29
 200 100 l 25
 200 400 l 25
 100 400 l 25
 100 100 l 29
0 0 m 25
 0 500 l 25
 200 500 l 25
 200 400 l 25
 300 400 l 25
 300 100 l 25
 200 100 l 25
 200 0 l 25
 0 0 l 25
EndSplineSet
Validated: 5
EndChar

StartChar: e
Encoding: 101 101 35
Width: 400
VWidth: 0
Flags: HW
LayerCount: 2
Fore
SplineSet
0 0 m 29
 0 500 l 25
 300 500 l 25
 300 400 l 25
 100 400 l 25
 100 300 l 25
 200 300 l 25
 200 200 l 25
 100 200 l 25
 100 100 l 25
 300 100 l 25
 300 0 l 25
 0 0 l 29
EndSplineSet
Validated: 1
EndChar

StartChar: f
Encoding: 102 102 36
Width: 400
VWidth: 0
Flags: HW
LayerCount: 2
Fore
SplineSet
0 0 m 29
 0 500 l 25
 300 500 l 25
 300 400 l 25
 100 400 l 25
 100 300 l 25
 200 300 l 25
 200 200 l 25
 100 200 l 25
 100 0 l 25
 0 0 l 29
EndSplineSet
Validated: 1
EndChar

StartChar: g
Encoding: 103 103 37
Width: 400
VWidth: 0
Flags: HW
LayerCount: 2
Fore
SplineSet
0 0 m 29
 0 500 l 25
 300 500 l 25
 300 400 l 25
 100 400 l 25
 100 100 l 25
 200 100 l 25
 200 300 l 25
 300 300 l 25
 300 0 l 25
 0 0 l 29
EndSplineSet
Validated: 1
EndChar

StartChar: h
Encoding: 104 104 38
Width: 400
VWidth: 0
Flags: HW
LayerCount: 2
Fore
SplineSet
0 0 m 29
 0 500 l 25
 100 500 l 25
 100 300 l 25
 200 300 l 25
 200 500 l 25
 300 500 l 25
 300 0 l 25
 200 0 l 25
 200 200 l 25
 100 200 l 25
 100 0 l 25
 0 0 l 29
EndSplineSet
Validated: 1
EndChar

StartChar: i
Encoding: 105 105 39
Width: 400
VWidth: 0
Flags: HW
LayerCount: 2
Fore
SplineSet
0 0 m 29xe0
 0 100 l 25
 100 100 l 25xe0
 100 400 l 25
 0 400 l 25
 0 500 l 25
 300 500 l 25
 300 400 l 25
 200 400 l 25xd0
 200 100 l 25
 300 100 l 25
 300 0 l 25
 0 0 l 29xe0
EndSplineSet
Validated: 1
EndChar

StartChar: j
Encoding: 106 106 40
Width: 400
VWidth: 0
Flags: HW
LayerCount: 2
Fore
SplineSet
0 400 m 25
 0 500 l 25
 300 500 l 25
 300 0 l 1
 100 0 l 25
 100 100 l 25
 0 100 l 25
 0 200 l 25
 100 200 l 25
 100 100 l 25
 200 100 l 1
 200 400 l 25
 0 400 l 25
EndSplineSet
Validated: 5
EndChar

StartChar: k
Encoding: 107 107 41
Width: 400
VWidth: 0
Flags: HW
LayerCount: 2
Fore
SplineSet
0 0 m 29
 0 500 l 25
 100 500 l 25
 100 300 l 25
 200 300 l 25
 200 500 l 25
 300 500 l 25
 300 300 l 25
 200 300 l 25
 200 200 l 25
 300 200 l 25
 300 0 l 25
 200 0 l 25
 200 200 l 25
 100 200 l 25
 100 0 l 25
 0 0 l 29
EndSplineSet
Validated: 5
EndChar

StartChar: l
Encoding: 108 108 42
Width: 400
VWidth: 0
Flags: HW
LayerCount: 2
Fore
SplineSet
0 0 m 29
 0 500 l 25
 100 500 l 25
 100 100 l 25
 300 100 l 25
 300 0 l 25
 0 0 l 29
EndSplineSet
Validated: 1
EndChar

StartChar: m
Encoding: 109 109 43
Width: 600
VWidth: 0
Flags: HW
LayerCount: 2
Fore
SplineSet
0 0 m 29
 0 500 l 25
 100 500 l 25
 100 400 l 25
 200 400 l 25
 200 300 l 25
 300 300 l 25
 300 400 l 25
 400 400 l 25
 400 500 l 25
 500 500 l 25
 500 0 l 25
 400 0 l 25
 400 300 l 25
 300 300 l 25
 300 200 l 25
 200 200 l 25
 200 300 l 25
 100 300 l 25
 100 0 l 25
 0 0 l 29
EndSplineSet
Validated: 5
EndChar

StartChar: n
Encoding: 110 110 44
Width: 400
VWidth: 0
Flags: HW
LayerCount: 2
Fore
SplineSet
0 0 m 29
 0 500 l 25
 200 500 l 25
 200 400 l 25
 300 400 l 25
 300 0 l 25
 200 0 l 25
 200 400 l 25
 100 400 l 25
 100 0 l 25
 0 0 l 29
EndSplineSet
Validated: 5
EndChar

StartChar: o
Encoding: 111 111 45
Width: 400
VWidth: 0
Flags: W
LayerCount: 2
Fore
SplineSet
100 100 m 29
 200 100 l 25
 200 400 l 25
 100 400 l 25
 100 100 l 29
0 0 m 25
 0 500 l 25
 300 500 l 25
 300 0 l 25
 0 0 l 25
EndSplineSet
Validated: 1
EndChar

StartChar: p
Encoding: 112 112 46
Width: 400
VWidth: 0
Flags: HW
LayerCount: 2
Fore
SplineSet
100 300 m 29
 200 300 l 25
 200 400 l 25
 100 400 l 25
 100 300 l 29
0 0 m 25
 0 500 l 25
 300 500 l 25
 300 200 l 25
 100 200 l 25
 100 0 l 25
 0 0 l 25
EndSplineSet
Validated: 1
EndChar

StartChar: q
Encoding: 113 113 47
Width: 500
VWidth: 0
Flags: HW
LayerCount: 2
Fore
SplineSet
100 100 m 29
 200 100 l 25
 200 200 l 25
 300 200 l 25
 300 400 l 25
 100 400 l 25
 100 100 l 29
0 0 m 25
 0 500 l 25
 400 500 l 25
 400 0 l 25
 0 0 l 25
EndSplineSet
Validated: 1
EndChar

StartChar: r
Encoding: 114 114 48
Width: 400
VWidth: 0
Flags: HW
LayerCount: 2
Fore
SplineSet
100 300 m 29
 200 300 l 25
 200 400 l 25
 100 400 l 25
 100 300 l 29
0 0 m 25
 0 500 l 25
 300 500 l 25
 300 300 l 25
 200 300 l 25
 200 200 l 25
 300 200 l 25
 300 0 l 25
 200 0 l 25
 200 200 l 25
 100 200 l 25
 100 0 l 25
 0 0 l 25
EndSplineSet
Validated: 5
EndChar

StartChar: s
Encoding: 115 115 49
Width: 400
VWidth: 0
Flags: HW
LayerCount: 2
Fore
SplineSet
0 0 m 29
 0 100 l 25
 200 100 l 25
 200 200 l 25
 0 200 l 25
 0 500 l 25
 300 500 l 25
 300 400 l 25
 100 400 l 25
 100 300 l 25
 300 300 l 25
 300 0 l 25
 0 0 l 29
EndSplineSet
Validated: 1
EndChar

StartChar: t
Encoding: 116 116 50
Width: 400
VWidth: 0
Flags: HW
LayerCount: 2
Fore
SplineSet
100 0 m 29
 100 400 l 25
 0 400 l 25
 0 500 l 25
 300 500 l 25
 300 400 l 25
 200 400 l 25
 200 0 l 25
 100 0 l 29
EndSplineSet
Validated: 1
EndChar

StartChar: u
Encoding: 117 117 51
Width: 400
VWidth: 0
Flags: HW
LayerCount: 2
Fore
SplineSet
0 0 m 29
 0 500 l 25
 100 500 l 25
 100 100 l 25
 200 100 l 25
 200 500 l 25
 300 500 l 25
 300 0 l 25
 0 0 l 29
EndSplineSet
Validated: 1
EndChar

StartChar: v
Encoding: 118 118 52
Width: 400
VWidth: 0
Flags: HW
LayerCount: 2
Fore
SplineSet
0 100 m 29
 0 500 l 25
 100 500 l 25
 100 100 l 25
 200 100 l 25
 200 500 l 25
 300 500 l 25
 300 100 l 25
 200 100 l 25
 200 0 l 25
 100 0 l 25
 100 100 l 25
 0 100 l 29
EndSplineSet
Validated: 5
EndChar

StartChar: w
Encoding: 119 119 53
Width: 600
VWidth: 0
Flags: HW
LayerCount: 2
Fore
SplineSet
0 100 m 29
 0 500 l 25
 100 500 l 25
 100 100 l 25
 200 100 l 25
 200 200 l 25
 300 200 l 25
 300 100 l 25
 400 100 l 25
 400 500 l 25
 500 500 l 25
 500 100 l 25
 400 100 l 25
 400 0 l 25
 300 0 l 25
 300 100 l 25
 200 100 l 25
 200 0 l 25
 100 0 l 25
 100 100 l 25
 0 100 l 29
EndSplineSet
Validated: 5
EndChar

StartChar: x
Encoding: 120 120 54
Width: 400
VWidth: 0
Flags: W
LayerCount: 2
Fore
SplineSet
0 0 m 29x98
 0 200 l 25
 100 200 l 25x98
 100 300 l 25x58
 0 300 l 25
 0 500 l 25
 100 500 l 25x38
 100 300 l 25
 200 300 l 25x58
 200 500 l 25
 300 500 l 25
 300 300 l 25x38
 200 300 l 25x58
 200 200 l 25
 300 200 l 25
 300 0 l 25
 200 0 l 25
 200 200 l 25
 100 200 l 25
 100 0 l 25
 0 0 l 29x98
EndSplineSet
Validated: 5
EndChar

StartChar: y
Encoding: 121 121 55
Width: 400
VWidth: 0
Flags: HW
LayerCount: 2
Fore
SplineSet
0 300 m 29
 0 500 l 25
 100 500 l 25
 100 300 l 25
 200 300 l 25
 200 500 l 25
 300 500 l 25
 300 300 l 25
 200 300 l 25
 200 0 l 25
 100 0 l 25
 100 300 l 25
 0 300 l 29
EndSplineSet
Validated: 5
EndChar

StartChar: z
Encoding: 122 122 56
Width: 400
VWidth: 0
Flags: HW
LayerCount: 2
Fore
SplineSet
0 0 m 29
 0 200 l 25
 100 200 l 25
 100 300 l 25
 200 300 l 25
 200 400 l 25
 0 400 l 25
 0 500 l 25
 300 500 l 25
 300 300 l 25
 200 300 l 25
 200 200 l 25
 100 200 l 25
 100 100 l 25
 300 100 l 25
 300 0 l 25
 0 0 l 29
EndSplineSet
Validated: 5
EndChar

StartChar: braceleft
Encoding: 123 123 57
Width: 400
VWidth: 0
Flags: HW
LayerCount: 2
Fore
SplineSet
100 0 m 29
 100 200 l 25
 0 200 l 25
 0 300 l 25
 100 300 l 25
 100 500 l 25
 300 500 l 25
 300 400 l 25
 200 400 l 25
 200 300 l 25
 100 300 l 25
 100 200 l 25
 200 200 l 25
 200 100 l 25
 300 100 l 25
 300 0 l 25
 100 0 l 29
EndSplineSet
Validated: 5
EndChar

StartChar: bar
Encoding: 124 124 58
Width: 200
VWidth: 0
Flags: HW
LayerCount: 2
Fore
SplineSet
0 0 m 29
 0 500 l 25
 100 500 l 25
 100 0 l 25
 0 0 l 29
EndSplineSet
Validated: 1
EndChar

StartChar: braceright
Encoding: 125 125 59
Width: 400
VWidth: 0
Flags: HW
LayerCount: 2
Fore
SplineSet
0 0 m 25
 0 100 l 25
 100 100 l 25
 100 200 l 25
 200 200 l 1
 200 300 l 25
 100 300 l 1
 100 400 l 25
 0 400 l 25
 0 500 l 25
 200 500 l 25
 200 300 l 25
 300 300 l 25
 300 200 l 25
 200 200 l 25
 200 0 l 25
 0 0 l 25
EndSplineSet
Validated: 5
EndChar

StartChar: numbersign
Encoding: 35 35 60
Width: 600
VWidth: 0
Flags: HW
LayerCount: 2
Fore
SplineSet
200 200 m 29
 300 200 l 25
 300 300 l 25
 200 300 l 25
 200 200 l 29
100 0 m 25
 100 100 l 25
 0 100 l 25
 0 200 l 25
 100 200 l 25
 100 300 l 25
 0 300 l 25
 0 400 l 25
 100 400 l 25
 100 500 l 25
 200 500 l 25
 200 400 l 25
 300 400 l 25
 300 500 l 25
 400 500 l 25
 400 400 l 25
 500 400 l 25
 500 300 l 25
 400 300 l 25
 400 200 l 25
 500 200 l 25
 500 100 l 25
 400 100 l 25
 400 0 l 25
 300 0 l 25
 300 100 l 25
 200 100 l 25
 200 0 l 25
 100 0 l 25
EndSplineSet
Validated: 1
EndChar

StartChar: exclam
Encoding: 33 33 61
Width: 200
VWidth: 0
Flags: HW
LayerCount: 2
Fore
SplineSet
0 200 m 29
 0 500 l 25
 100 500 l 25
 100 200 l 25
 0 200 l 29
0 0 m 25
 0 100 l 25
 100 100 l 25
 100 0 l 25
 0 0 l 25
EndSplineSet
Validated: 1
EndChar

StartChar: zero
Encoding: 48 48 62
Width: 400
VWidth: 0
Flags: HW
LayerCount: 2
Fore
SplineSet
100 100 m 29
 200 100 l 25
 200 400 l 25
 100 400 l 25
 100 100 l 29
0 0 m 25
 0 500 l 25
 300 500 l 25
 300 0 l 25
 0 0 l 25
EndSplineSet
Validated: 1
EndChar

StartChar: one
Encoding: 49 49 63
Width: 400
VWidth: 0
Flags: HW
LayerCount: 2
Fore
SplineSet
0 0 m 29
 0 100 l 25
 100 100 l 25
 100 300 l 25
 0 300 l 25
 0 400 l 25
 100 400 l 25
 100 500 l 25
 200 500 l 25
 200 100 l 25
 300 100 l 25
 300 0 l 25
 0 0 l 29
EndSplineSet
Validated: 1
EndChar

StartChar: two
Encoding: 50 50 64
Width: 400
VWidth: 0
Flags: HW
LayerCount: 2
Fore
SplineSet
0 0 m 29
 0 300 l 25
 200 300 l 25
 200 400 l 25
 0 400 l 25
 0 500 l 25
 300 500 l 25
 300 200 l 25
 100 200 l 25
 100 100 l 25
 300 100 l 25
 300 0 l 25
 0 0 l 29
EndSplineSet
Validated: 1
EndChar

StartChar: three
Encoding: 51 51 65
Width: 400
VWidth: 0
Flags: HW
LayerCount: 2
Fore
SplineSet
0 0 m 29
 0 100 l 25
 200 100 l 25
 200 200 l 25
 100 200 l 25
 100 300 l 25
 200 300 l 25
 200 400 l 25
 0 400 l 25
 0 500 l 25
 300 500 l 25
 300 0 l 25
 0 0 l 29
EndSplineSet
Validated: 1
EndChar

StartChar: four
Encoding: 52 52 66
Width: 400
VWidth: 0
Flags: HW
LayerCount: 2
Fore
SplineSet
0 200 m 29
 0 500 l 25
 100 500 l 25
 100 300 l 25
 200 300 l 25
 200 500 l 25
 300 500 l 25
 300 0 l 25
 200 0 l 25
 200 200 l 25
 0 200 l 29
EndSplineSet
Validated: 1
EndChar

StartChar: five
Encoding: 53 53 67
Width: 400
VWidth: 0
Flags: HW
LayerCount: 2
Fore
SplineSet
0 0 m 29
 0 100 l 25
 200 100 l 25
 200 200 l 25
 0 200 l 25
 0 500 l 25
 300 500 l 25
 300 400 l 25
 100 400 l 25
 100 300 l 25
 300 300 l 25
 300 100 l 25
 200 100 l 25
 200 0 l 25
 0 0 l 29
EndSplineSet
Validated: 5
EndChar

StartChar: six
Encoding: 54 54 68
Width: 400
VWidth: 0
Flags: HW
LayerCount: 2
Fore
SplineSet
100 100 m 29
 200 100 l 25
 200 200 l 25
 100 200 l 25
 100 100 l 29
0 0 m 25
 0 500 l 25
 300 500 l 25
 300 400 l 25
 100 400 l 25
 100 300 l 25
 300 300 l 25
 300 0 l 25
 0 0 l 25
EndSplineSet
Validated: 1
EndChar

StartChar: seven
Encoding: 55 55 69
Width: 400
VWidth: 0
Flags: HW
LayerCount: 2
Fore
SplineSet
100 0 m 1
 100 300 l 25
 200 300 l 25
 200 400 l 1
 0 400 l 25
 0 500 l 25
 300 500 l 1
 300 300 l 25
 200 300 l 25
 200 0 l 1
 100 0 l 1
EndSplineSet
Validated: 5
EndChar

StartChar: eight
Encoding: 56 56 70
Width: 400
VWidth: 0
Flags: HW
LayerCount: 2
Fore
SplineSet
100 300 m 29
 200 300 l 25
 200 400 l 25
 100 400 l 25
 100 300 l 29
100 100 m 25
 200 100 l 25
 200 200 l 25
 100 200 l 25
 100 100 l 25
0 0 m 25
 0 500 l 25
 300 500 l 25
 300 0 l 25
 0 0 l 25
EndSplineSet
Validated: 1
EndChar

StartChar: nine
Encoding: 57 57 71
Width: 400
VWidth: 0
Flags: HW
LayerCount: 2
Fore
SplineSet
100 300 m 29
 200 300 l 25
 200 400 l 25
 100 400 l 25
 100 300 l 29
200 0 m 25
 200 200 l 25
 0 200 l 25
 0 500 l 25
 300 500 l 25
 300 0 l 25
 200 0 l 25
EndSplineSet
Validated: 1
EndChar

StartChar: quotedbl
Encoding: 34 34 72
Width: 400
VWidth: 0
Flags: HW
LayerCount: 2
Fore
SplineSet
200 300 m 29
 200 500 l 25
 300 500 l 25
 300 300 l 25
 200 300 l 29
0 300 m 25
 0 500 l 25
 100 500 l 25
 100 300 l 25
 0 300 l 25
EndSplineSet
Validated: 1
EndChar

StartChar: dollar
Encoding: 36 36 73
Width: 400
VWidth: 0
Flags: HW
LayerCount: 2
Fore
SplineSet
0 100 m 29
 0 200 l 25
 100 200 l 25
 100 300 l 25
 0 300 l 25
 0 400 l 25
 100 400 l 25
 100 500 l 25
 200 500 l 25
 200 400 l 25
 300 400 l 25
 300 300 l 25
 200 300 l 25
 200 200 l 25
 300 200 l 25
 300 100 l 25
 200 100 l 25
 200 0 l 25
 100 0 l 25
 100 100 l 25
 0 100 l 29
EndSplineSet
Validated: 1
EndChar

StartChar: quotesingle
Encoding: 39 39 74
Width: 200
VWidth: 0
Flags: HW
LayerCount: 2
Fore
SplineSet
0 300 m 29
 0 500 l 25
 100 500 l 25
 100 300 l 25
 0 300 l 29
EndSplineSet
Validated: 1
EndChar

StartChar: parenleft
Encoding: 40 40 75
Width: 300
VWidth: 0
Flags: HW
LayerCount: 2
Fore
SplineSet
0 100 m 29
 0 400 l 25
 100 400 l 25
 100 500 l 25
 200 500 l 25
 200 400 l 25
 100 400 l 25
 100 100 l 25
 200 100 l 25
 200 0 l 25
 100 0 l 25
 100 100 l 25
 0 100 l 29
EndSplineSet
Validated: 5
EndChar

StartChar: parenright
Encoding: 41 41 76
Width: 300
VWidth: 0
Flags: HW
LayerCount: 2
Fore
SplineSet
0 0 m 29
 0 100 l 25
 100 100 l 25
 100 400 l 25
 0 400 l 25
 0 500 l 25
 100 500 l 25
 100 400 l 25
 200 400 l 25
 200 100 l 25
 100 100 l 25
 100 0 l 25
 0 0 l 29
EndSplineSet
Validated: 5
EndChar

StartChar: asterisk
Encoding: 42 42 77
Width: 400
VWidth: 0
Flags: HW
LayerCount: 2
Fore
SplineSet
0 100 m 29xb4
 0 200 l 25xb4
 100 200 l 25x6c
 100 300 l 25
 0 300 l 25
 0 400 l 25
 100 400 l 25
 100 300 l 25
 200 300 l 25
 200 400 l 25
 300 400 l 25
 300 300 l 25
 200 300 l 25xb4
 200 200 l 25x6c
 300 200 l 25
 300 100 l 25
 200 100 l 25
 200 200 l 25
 100 200 l 25
 100 100 l 25xac
 0 100 l 29xb4
EndSplineSet
Validated: 5
EndChar

StartChar: plus
Encoding: 43 43 78
Width: 400
VWidth: 0
Flags: HW
LayerCount: 2
Fore
SplineSet
0 200 m 29
 0 300 l 25
 100 300 l 25
 100 400 l 25
 200 400 l 25
 200 300 l 25
 300 300 l 25
 300 200 l 25
 200 200 l 25
 200 100 l 25
 100 100 l 25
 100 200 l 25
 0 200 l 29
EndSplineSet
Validated: 1
EndChar

StartChar: comma
Encoding: 44 44 79
Width: 200
VWidth: 0
Flags: HW
LayerCount: 2
Fore
SplineSet
0 -100 m 29
 0 100 l 25
 100 100 l 25
 100 -100 l 25
 0 -100 l 29
EndSplineSet
Validated: 1
EndChar

StartChar: hyphen
Encoding: 45 45 80
Width: 400
VWidth: 0
Flags: HW
LayerCount: 2
Fore
SplineSet
0 200 m 29x40
 0 300 l 25x40
 300 300 l 25
 300 200 l 25x80
 0 200 l 29x40
EndSplineSet
Validated: 1
EndChar

StartChar: period
Encoding: 46 46 81
Width: 200
VWidth: 0
Flags: W
LayerCount: 2
Fore
SplineSet
0 0 m 29
 0 100 l 25
 100 100 l 25
 100 0 l 25
 0 0 l 29
EndSplineSet
Validated: 1
EndChar

StartChar: colon
Encoding: 58 58 82
Width: 200
VWidth: 0
Flags: HW
LayerCount: 2
Fore
SplineSet
0 300 m 25
 0 400 l 29
 100 400 l 25
 100 300 l 25
 0 300 l 25
0 100 m 25
 0 200 l 25
 100 200 l 25
 100 100 l 25
 0 100 l 25
EndSplineSet
Validated: 1
EndChar

StartChar: semicolon
Encoding: 59 59 83
Width: 200
VWidth: 0
Flags: HW
LayerCount: 2
Fore
SplineSet
0 300 m 29
 0 400 l 25
 100 400 l 25
 100 300 l 25
 0 300 l 29
0 0 m 25
 0 200 l 25
 100 200 l 25
 100 0 l 25
 0 0 l 25
EndSplineSet
Validated: 1
EndChar

StartChar: less
Encoding: 60 60 84
Width: 400
VWidth: 0
Flags: HW
LayerCount: 2
Fore
SplineSet
0 200 m 29
 0 300 l 25
 100 300 l 25
 100 400 l 25
 200 400 l 25
 200 500 l 25
 300 500 l 25
 300 400 l 25
 200 400 l 25
 200 300 l 25
 100 300 l 25
 100 200 l 25
 200 200 l 25
 200 100 l 25
 300 100 l 25
 300 0 l 25
 200 0 l 25
 200 100 l 25
 100 100 l 25
 100 200 l 25
 0 200 l 29
EndSplineSet
Validated: 5
EndChar

StartChar: equal
Encoding: 61 61 85
Width: 400
VWidth: 0
Flags: HW
LayerCount: 2
Fore
SplineSet
0 300 m 29
 0 400 l 25
 300 400 l 25
 300 300 l 25
 0 300 l 29
0 100 m 25
 0 200 l 25
 300 200 l 25
 300 100 l 25
 0 100 l 25
EndSplineSet
Validated: 1
EndChar

StartChar: greater
Encoding: 62 62 86
Width: 400
VWidth: 0
Flags: HW
LayerCount: 2
Fore
SplineSet
0 0 m 29
 0 100 l 25
 100 100 l 25
 100 200 l 25
 200 200 l 25
 200 300 l 25
 100 300 l 25
 100 400 l 25
 0 400 l 25
 0 500 l 25
 100 500 l 25
 100 400 l 25
 200 400 l 25
 200 300 l 25
 300 300 l 25
 300 200 l 25
 200 200 l 25
 200 100 l 25
 100 100 l 25
 100 0 l 25
 0 0 l 29
EndSplineSet
Validated: 5
EndChar

StartChar: question
Encoding: 63 63 87
Width: 400
VWidth: 0
Flags: HW
LayerCount: 2
Fore
SplineSet
100 0 m 29
 100 100 l 25
 200 100 l 25
 200 0 l 25
 100 0 l 29
0 400 m 25
 0 500 l 25
 200 500 l 25
 200 400 l 25
 300 400 l 25
 300 300 l 25
 200 300 l 25
 200 200 l 25
 100 200 l 25
 100 300 l 25
 200 300 l 25
 200 400 l 25
 0 400 l 25
EndSplineSet
Validated: 5
EndChar

StartChar: slash
Encoding: 47 47 88
Width: 600
VWidth: 0
LayerCount: 2
Fore
SplineSet
400 400 m 5x1080
 400 500 l 5
 500 500 l 5
 500 400 l 5x0840
 400 400 l 5x1080
300 300 m 1x21
 300 400 l 1
 400 400 l 1
 400 300 l 1x1080
 300 300 l 1x21
200 200 m 1x42
 200 300 l 1
 300 300 l 1
 300 200 l 1x21
 200 200 l 1x42
100 100 m 1x84
 100 200 l 1
 200 200 l 1
 200 100 l 1x42
 100 100 l 1x84
0 0 m 1x84
 0 100 l 1
 100 100 l 1
 100 0 l 1
 0 0 l 1x84
EndSplineSet
Validated: 5
EndChar

StartChar: backslash
Encoding: 92 92 90
Width: 600
VWidth: 0
LayerCount: 2
Fore
SplineSet
400 0 m 5x8040
 400 100 l 5x8080
 500 100 l 5
 500 0 l 5
 400 0 l 5x8040
300 100 m 1x4080
 300 200 l 1x41
 400 200 l 1x4080
 400 100 l 1x8080
 300 100 l 1x4080
200 200 m 1x21
 200 300 l 1x22
 300 300 l 1x21
 300 200 l 1x41
 200 200 l 1x21
100 300 m 1x12
 100 400 l 1x14
 200 400 l 1x12
 200 300 l 1x22
 100 300 l 1x12
0 400 m 1x0c
 0 500 l 1
 100 500 l 1x0c
 100 400 l 1x14
 0 400 l 1x0c
EndSplineSet
Validated: 5
EndChar

StartChar: percent
Encoding: 37 37 91
Width: 600
VWidth: 0
Flags: HW
LayerCount: 2
Fore
SplineSet
300 0 m 29
 300 100 l 25
 400 100 l 25
 400 200 l 25
 500 200 l 25
 500 0 l 25
 300 0 l 29
0 300 m 25
 0 500 l 25
 200 500 l 25
 200 400 l 25
 100 400 l 25
 100 300 l 25
 0 300 l 25
400 400 m 1x1080
 400 500 l 1
 500 500 l 1
 500 400 l 1x0840
 400 400 l 1x1080
300 300 m 1x21
 300 400 l 1
 400 400 l 1
 400 300 l 1x1080
 300 300 l 1x21
200 200 m 1x42
 200 300 l 1
 300 300 l 1
 300 200 l 1x21
 200 200 l 1x42
100 100 m 1x84
 100 200 l 1
 200 200 l 1
 200 100 l 1x42
 100 100 l 1x84
0 0 m 1x84
 0 100 l 1
 100 100 l 1
 100 0 l 1
 0 0 l 1x84
EndSplineSet
Validated: 5
EndChar
